<?xml version="1.0" standalone="no"?><svg xmlns="http://www.w3.org/2000/svg" viewBox="0 0 1440 320"><path fill="#ffffff" fill-opacity="1" d="M0,96L17.1,96C34.3,96,69,96,103,90.7C137.1,85,171,75,206,80C240,85,274,107,309,117.3C342.9,128,377,128,411,117.3C445.7,107,480,85,514,69.3C548.6,53,583,43,617,42.7C651.4,43,686,53,720,80C754.3,107,789,149,823,165.3C857.1,181,891,171,926,144C960,117,994,75,1029,74.7C1062.9,75,1097,117,1131,138.7C1165.7,160,1200,160,1234,138.7C1268.6,117,1303,75,1337,48C1371.4,21,1406,11,1423,5.3L1440,0L1440,320L1422.9,320C1405.7,320,1371,320,1337,320C1302.9,320,1269,320,1234,320C1200,320,1166,320,1131,320C1097.1,320,1063,320,1029,320C994.3,320,960,320,926,320C891.4,320,857,320,823,320C788.6,320,754,320,720,320C685.7,320,651,320,617,320C582.9,320,549,320,514,320C480,320,446,320,411,320C377.1,320,343,320,309,320C274.3,320,240,320,206,320C171.4,320,137,320,103,320C68.6,320,34,320,17,320L0,320Z"></path></svg>